<svg width="41" height="42" viewBox="0 0 41 42" fill="none" xmlns="http://www.w3.org/2000/svg">
<path d="M31.0804 18.8995C36.1614 18.8995 40.2804 14.7438 40.2804 9.61745C40.2804 4.49114 36.1614 0.335449 31.0804 0.335449C25.9994 0.335449 21.8804 4.49114 21.8804 9.61745C21.8804 14.7438 25.9994 18.8995 31.0804 18.8995Z" fill="#E8618C"/>
<path d="M31.0804 41.0743C36.1614 41.0743 40.2804 36.9186 40.2804 31.7923C40.2804 26.6659 36.1614 22.5103 31.0804 22.5103C25.9994 22.5103 21.8804 26.6659 21.8804 31.7923C21.8804 36.9186 25.9994 41.0743 31.0804 41.0743Z" fill="#22CCB2"/>
<path d="M0.640137 16.0674C0.640137 7.35277 7.64244 0.288086 16.2801 0.288086V25.3495C16.2801 34.0642 9.27783 41.1288 0.640137 41.1288V16.0674Z" fill="#636AE8"/>
</svg>
